<?xml version="1.0" encoding="UTF-8"?>
<svg id="Vrstva_1" data-name="Vrstva 1" xmlns="http://www.w3.org/2000/svg" xmlns:xlink="http://www.w3.org/1999/xlink" viewBox="0 0 272.4 271.96">
  <defs>
    <style>
      .cls-1, .cls-2 {
        stroke-width: 0px;
      }

      .cls-2 {
        fill: none;
      }

      .cls-3 {
        clip-path: url(#clippath);
      }
    </style>
    <clipPath id="clippath">
      <rect class="cls-2" width="272.4" height="271.96"/>
    </clipPath>
  </defs>
  <g class="cls-3">
    <g>
      <path class="cls-1" d="m106.02,134.46c-.21-2.2-.38-4.35-.64-6.49-.66-5.56-.84-11.15-1.14-16.73-.52-9.67-.99-19.34-1.51-29-.15-2.74-.07-5.49-.25-8.23-.55-8.27-1.1-16.54-.67-24.84.14-2.6.52-5.16,1.46-7.6.88-2.28,2.55-2.62,4.36-.99,1.18,1.06,2,2.35,2.75,3.73,3.08,5.68,5.05,11.79,7,17.91,2,6.26,4.03,12.52,6.07,18.77.16.5.13,1.14.73,1.49.4-.64.23-1.32.26-1.97.43-8.63.63-17.29,1.34-25.9.43-5.24,1.25-10.51,3.92-15.24.48-.85.99-1.7,1.56-2.5,1.55-2.18,3.39-2.18,5.09-.12,2.95,3.59,4.27,7.86,5.34,12.27,1.59,6.53,1.73,13.23,2.46,19.86.48,4.4.87,8.82,1.56,13.25.88-3.21,1.75-6.43,2.66-9.63,2.11-7.42,3.85-14.94,6.33-22.25,1.11-3.28,2.34-6.54,4.2-9.5.45-.71.98-1.34,1.64-1.86,1.38-1.07,2.98-.78,3.77.79,1.18,2.34,1.61,4.9,1.94,7.48,1.39,10.79.49,21.63.61,32.44.13,11.86,0,23.72,0,35.58,0,5.23-.2,10.46-.57,15.68-.05.65-.2,1.33.06,1.97.36.13.52-.13.66-.32,6.24-8.18,13.66-15.28,20.82-22.62,6.27-6.42,11.86-13.42,17.81-20.12,2.55-2.87,5.3-5.53,8.04-8.21,1.21-1.18,2.77-1.61,4.31-1.01,1.48.58,1.71,2.11,1.75,3.55.19,7.18-2.49,13.53-6.28,19.34-4.43,6.78-8.25,13.89-12.14,20.97-5.09,9.26-9.93,18.66-14.55,28.17-2.92,6.01-5.51,12.17-7.97,18.39-.32.81-.81,1.57-1.04,2.4-.43,1.58-.79,3.18.09,4.78.37.68.47,1.63.12,2.27-.85,1.57-.77,3.15-.54,4.8.12.86-.22,1.67-.79,2.29-1.02,1.12-1.39,2.31-1.11,3.83.27,1.45-.36,2.86-.61,4.28-.49,2.71-.8,5.42-.92,8.17-.05,1.27-.22,2.49-1.36,3.32-.57.41-.57,1.08-.7,1.68-1.25,5.51-2.83,10.92-5.15,16.09-1.97,4.38-4.6,8.34-7.83,11.9-3.17,3.49-6.3,7.04-10.35,9.56-3.04,1.89-6.49,3.29-9.94,3.19-4.32-.13-8.56-1.48-12.14-4.24-9.85-7.6-17.29-16.91-20.82-29.04-.62-2.13-1.64-4.15-1.93-6.38-.03-.2-.07-.48-.21-.58-2.46-1.8-1.93-4.64-2.39-7.09-.42-2.29-.79-4.59-1.39-6.84-.08-.3-.22-.61-.21-.9.13-2.18-.22-4.18-1.88-5.78-.14-.13-.27-.39-.24-.56.54-3.29-2.04-6.39-.49-9.81.49-1.08-.29-2.46-.77-3.52-1.87-4.15-4.03-8.16-5.95-12.29-2.65-5.69-5.88-11.07-8.9-16.56-5.75-10.44-12.13-20.51-18.34-30.68-1.89-3.09-4.18-5.92-6.2-8.93-3.27-4.86-5.56-10.15-6.55-15.96-.21-1.23-.14-2.47.11-3.71.43-2.12,1.76-2.94,3.86-2.38,1.75.47,2.87,1.8,4.13,2.93,8.5,7.61,15.76,16.46,24.05,24.28,5.8,5.47,11.8,10.74,17.35,16.47,1.69,1.75,3.27,3.6,4.91,5.4.37.4.6.97,1.35,1.1Zm44.93,76.69c-.42.27-.25.61-.29.9-.27,2.01-1.23,3.64-2.88,4.78-.86.59-1.95.97-2.76-.15-.74-1.02-.21-1.84.6-2.56,1.97-1.74,2.06-3.05.54-5.24-.87-1.25-2.23-2-3.04-3.3-1.81-2.89-3.89-5.63-4.94-8.94-.1-.32-.19-.78-.65-.76-.34.02-.41.41-.51.7-1.54,4.5-3.8,8.56-6.96,12.16-2.18,2.48-1.93,3.65.6,5.94.65.59.99,1.32.5,2.22-.47.85-1.21.89-2.02.66-.81-.23-1.49-.67-2.07-1.31-1.15-1.27-1.78-2.73-1.81-4.69-1.76,1.4-2.88,2.96-3.67,4.77-.57,1.31-1.31,2.48-2.44,3.35-.72.55-.7,1-.18,1.66.94,1.19,1.53,2.57,1.98,4.02.43,1.38,1.83,2.25,3.22,2,.44-.08,1.01-.07,1.23-.55.29-.61-.36-.76-.67-1.06-.52-.51-.66-1.08-.22-1.66.46-.61,1.11-.73,1.79-.34,1.03.59,1.54,1.57,1.61,2.69.06,1.02-.4,1.88-1.34,2.46-1.15.71-2.36.69-3.61.51-.63-.09-.86.02-.72.72.46,2.35,2.9,4.83,5.32,5.31.72.14,1.55.34,1.93-.48.35-.76-.57-.83-.92-1.21-.35-.39-.8-.71-.55-1.32.24-.6.72-.85,1.35-.86,1.98-.01,3.55,2.14,2.92,4.01-.56,1.67-2.57,2.75-4.53,2.46-4.31-.65-6.72-3.36-7.95-7.33-.58-1.88-.99-3.81-1.62-5.67-.69-2.02-1.73-3.81-3.62-5.05-1.82-1.19-3.51-2.57-4.82-4.35-.21-.29-.43-.65-1.06-.67.87,2.29,1.69,4.43,2.55,6.67.74-.67,1.31-1.44,2.08-.52.57.68.65,1.64-.2,1.99-1.17.48-.67,1.03-.36,1.66.28.56.56,1.11.88,1.65,3.87,6.51,8.95,11.98,15.11,16.28,6.02,4.2,12.37,4.2,18.67.38,3.95-2.39,6.86-5.98,9.82-9.44,2.62-3.06,4.94-6.38,6.49-10.15.25-.61.67-1.13-.43-1.49-.81-.26-.86-1.13-.47-1.85.39-.73.99-.91,1.65-.32.67.59.8-.03.93-.43.65-1.95,1.27-3.91,1.9-5.87-1.59,1.61-2.94,3.42-4.76,4.67-2.81,1.94-4.08,4.64-4.74,7.86-.45,2.22-.75,4.51-1.88,6.54-1.73,3.12-4.25,5.07-7.97,4.97-1.78-.05-3.32-1.52-3.5-3.17-.13-1.17,1.04-2.7,2.4-3.1.67-.19,1.4-.29,1.81.42.41.71.04,1.28-.54,1.75-.34.27-.94.47-.68,1.06.26.56.86.5,1.38.48,2.57-.11,3.97-1.86,5.04-3.86,1.08-2.01.83-2.32-1.32-2.26-.31,0-.62,0-.93-.02-1.24-.1-2.15-.7-2.68-1.83-.55-1.17-.19-2.24.53-3.2.58-.78,1.38-1.23,2.27-.58.96.7.45,1.44-.18,2.08-.43.44-.64.84.1,1.19,1.39.66,3.51-.29,3.86-1.76.38-1.58.95-3.07,1.91-4.38.45-.61.5-1.02-.19-1.52-1.33-.96-2.22-2.27-2.98-3.72-.81-1.55-1.88-2.93-3.29-3.97Zm-20.4-143.39c-.43-4.36.62-10.92,1.37-17.5.14-1.25.76-2.39,2.2-2.4,1.47-.01,1.97,1.19,2.22,2.39.17.8.07,1.63.26,2.46.96,4.14,1.59,8.32,1.69,12.59.1,4.34.36,8.69.78,13.02.56,5.82,1.35,11.61,2,17.43.62,5.55,1.17,11.11,1.77,16.67.75,6.94,1.56,13.88,2.24,20.83.34,3.48,1.21,6.81,2.18,10.15.23.8.76.57,1.22.52.71-.08.38-.58.28-.95-.66-2.61-1.46-5.19-1.97-7.83-1.45-7.5-1.14-15.16-1.84-22.73-.42-4.48-.71-8.98-1.16-13.45-.61-5.97-1.52-11.91-2.23-17.87-.94-7.96-1.32-15.98-2.27-23.94-.67-5.64-1.55-11.31-4.5-16.36-.25-.42-.32-1.14-.95-1.09-.58.05-.65.74-.88,1.18-2.76,5.39-3.36,11.3-3.73,17.18-.64,10.27-.84,20.57-1.79,30.83-.98,10.67-1.39,21.39-1.31,32.11.06,7.54-.31,15-2.2,22.34-.09.35-.63.95.16,1.12.56.12,1.08-.05,1.27-.8.61-2.3,1.31-4.6,1.48-6.98.59-8.57,1.1-17.15,1.61-25.72.27-4.6.41-9.21.74-13.8.65-9.03,1.67-18.05,1.33-29.42Zm-24.56-22.87c-1.04,4.74-.94,9.52-.89,14.24.06,5.94.84,11.87,1.01,17.82.32,11.13,1.02,22.23,1.61,33.35.43,8.06.77,16.13,1.95,24.13.44,2.99.67,6.09,2.61,8.66.79,1.04.01,1.81-.66,2.53-.28.3-1.04.24-.8.93.26.71.89.34,1.35.32.75-.02,1.37-.36,1.91-.91.43-.44.55-.76.08-1.29-1.81-2.02-2.35-4.58-2.79-7.13-.87-5.12-.98-10.27-.71-15.47.42-8.13-.15-16.26-.29-24.39-.03-1.81-.2-3.62-.46-5.41-.96-6.66-1.76-13.33-2.34-20.03-.33-3.76-.11-7.57-.89-11.29-.24-1.17-.34-2.36-.21-3.56.11-1.03.62-2.07,1.56-2.22,1.05-.18,2.18.35,2.63,1.52.35.91.62,1.86.83,2.82.72,3.28.87,6.7,1.95,9.88,2.75,8.14,5.65,16.23,8.52,24.33.31.87.41,1.85,1.17,2.82.07-2.29.19-4.24-.51-6.25-2.29-6.6-4.46-13.25-6.58-19.9-1.94-6.06-3.88-12.13-6.12-18.08-.98-2.6-2.28-5.08-3.93-7.4Zm41.44,51.2c.93-3.1,1.78-5.76,2.53-8.44,2.57-9.15,6.2-18.03,6.98-27.63.12-1.44.35-2.88.79-4.27.4-1.28,1.53-1.87,2.61-1.85.97.02,1.4,1.14,1.61,2.11.25,1.13.29,2.27.13,3.4-.23,1.54-.29,3.09-.28,4.65.03,6.16-.42,12.31-.78,18.46-.28,4.7-1.13,9.36-.99,14.09.12,4.14.18,8.27.31,12.41.09,3.11.09,6.22.38,9.31.5,5.21.89,10.42.49,15.64-.25,3.35-.55,6.74-2.63,9.6-.47.64-.23,1.02.23,1.45.88.83,1.89.75,3.31.55-2.8-.61-3.22-1.4-1.77-3.63,1.07-1.65,1.4-3.43,1.7-5.25,1.05-6.36,1.11-12.78,1.23-19.2.1-5.8.09-11.61.06-17.41-.02-5.7.43-11.39.17-17.09-.25-5.59-.44-11.2-.09-16.78.38-6.24-.13-12.41-.6-18.6-.1-1.36-.29-2.73-.95-4.3-.51,1-.91,1.76-1.3,2.53-2.83,5.59-4.09,11.71-5.82,17.67-2.52,8.7-4.79,17.47-7.27,26.18-.58,2.02-.65,3.95-.05,6.39Zm25.92,90.7c1.19-.36,1.63-1.11,1.39-1.86-.93-2.93,2.06-5.96-.27-8.82-.03-.03-.01-.1,0-.15.35-1.21,1.27-2.47-.29-3.53-.02-.02-.02-.11,0-.15.62-1.44-.51-2.02-1.39-2.64-.98-.69-1.53-1.53-1.43-2.74.12-1.35-.41-2.41-1.34-3.33-.48-.47-1.21-.96-1.08-1.63.52-2.57-1.57-4.11-2.6-5.84-1.27-2.14-1.5-5.33-4.62-6.14-.08-.02-.15-.15-.19-.24-.52-1.45-1.73-1.82-3.03-2.41-1.61-.74-3.02-1.31-4.9-1.39-2.41-.1-4.43.32-6.37,1.59-2.63,1.72-4.97,3.87-7.85,5.22-1.06.5-.72,1.03-.06,1.61,1.72,1.48,3.4,3.14,5.62.71.16-.17.46-.23.71-.29,5.42-1.26,10.38-1.03,14.99,2.88,3.59,3.04,6.3,6.54,8.17,10.75,2.57,5.81,4.44,11.82,4.53,18.43Zm-55.42-39.99c-1.01-.25-1.79.03-2.46.87-.33.42-.9.78-1.42.88-1.22.24-1.69,1.23-2.5,1.92-2.01,1.72-3.24,3.79-4.25,6.14-.25.58-.78,1.05-.84,1.76-.06.75-.4,1.4-.97,1.89-.64.55-.95,1.22-.82,2.06.18,1.18-.27,2.15-1.09,2.94-.98.94-1.3,2.04-1.13,3.38.14,1.11-.23,2.15-1.27,2.62-2.01.91-1.01,3.27-2.31,4.5-.05.05.1.4.23.54.98,1.06.77,2.15.15,3.28-.38.69-.78,1.52-.3,2.21,1.1,1.57,1.25,3.21.86,5.02-.14.67.31,1.35.94,1.41.88.09.64-.78.64-1.25-.02-6.36,1.72-12.37,3.63-18.34.98-3.07,2.21-6.05,4.39-8.49,3.09-3.47,6.68-6.11,11.64-4.74,2.81.78,5.65,1.7,8.15,3.32.41.27.87.79,1.18-.1.64-1.78,1.91-3.04,3.4-4.13.9-.66.95-1.3-.22-1.77-1.88-.76-3.65-1.76-5.25-2.96-1.97-1.47-3.98-2.59-6.43-3.17-1.45-.34-2.62.61-3.93.22Zm-64.51-58.36c-.03.53-.05.77-.05,1.02,0,.31,0,.63.06.93.95,4.83,2.82,9.31,5.46,13.43,2.12,3.31,4.61,6.38,6.74,9.69,3.19,4.96,6.18,10.06,9.31,15.07,6.7,10.72,13,21.67,18.61,33.01,1.4,2.83,2.8,5.66,4.16,8.51.37.78.69,1.15,1.37.27.18-.24.49-.38.73-.56.7-.52.72-1-.12-1.36-.75-.31-1.32-.79-1.68-1.53-4.45-9.01-9-17.96-14.28-26.53-4.45-7.23-8.54-14.68-12.87-21.98-3.09-5.21-6.26-10.37-9.64-15.4-.6-.89-.95-1.86-.03-2.66.92-.81,1.71-.28,2.58.41,3.7,2.93,6.73,6.56,10.29,9.65,3.24,2.81,6.31,5.82,9.4,8.81,4.75,4.61,9.83,8.89,14.31,13.79,1.13,1.23,2.28,2.45,3.42,3.67.14-.15.29-.3.44-.45-9.91-11.34-21.92-20.58-32.05-31.7-5.05-5.55-10.28-10.92-16.15-16.09Zm117.21,46.74c.87-.94,1.78-1.85,2.62-2.81,5.84-6.73,12.25-12.91,18.36-19.39,3.3-3.5,6.84-6.76,10.03-10.37,1.74-1.98,3.68-3.78,5.55-5.64.63-.62,1.4-.69,2.13-.22.72.47.75,1.19.46,1.94-.13.34-.3.66-.48.97-3.85,6.62-7.69,13.25-11.12,20.1-3.52,7.04-7.2,14-10.99,20.9-4.7,8.55-8.3,17.6-12.55,26.36-.46.95-.03,1.64.67,1.93.76.32.76-.65.96-1.09,1.88-4.26,3.59-8.6,5.58-12.81,4.46-9.46,9.08-18.85,14.28-27.94,5.04-8.8,9.6-17.88,15.28-26.33,2.99-4.45,4.6-9.59,5.27-14.96.04-.34.2-.79-.23-.97-.41-.17-.62.27-.88.5-.23.21-.44.44-.65.67-5.09,5.45-10.06,10.98-14.88,16.68-7.1,8.38-15.06,15.97-22.61,23.93-2.49,2.63-4.82,5.4-6.8,8.54Zm-13.51,41.27c0-1.08-.34-2.04-.82-2.98-1.17-2.27-3.28-3.55-5.2-5.03-.89-.68-1.15.01-1.35.72-.64,2.32-1.68,4.47-2.98,6.46-.61.93-.36,1.26.5,1.73,2.37,1.31,4.17,3.21,5.25,5.73.2.47.41.83.84.32,1.74-2.06,3.47-4.13,3.76-6.97Zm-46.19,32.94c-.17,3.25,1.82,5.26,4.06,7.09,1.58,1.29,2.38,1.13,3.36-.72.8-1.51,1.52-3.05,2.68-4.33.63-.69.26-1.12-.41-1.4-2.18-.93-3.44-2.74-4.49-4.73-.31-.59-.51-1.24-.79-1.85-.24-.53-.57-.71-1.07-.26-1.87,1.68-3.12,3.7-3.35,6.22Zm12.2-9.95c1.02.01,3.57-.68,4.39-1.17,1.47-.87,1.62-2.27.4-3.47-.7-.69-1.5-1.32-2.03-2.12-2.31-3.49-6.1-2.41-8.57-.71-1.24.85-1.42,1.83-.88,3.2,1.23,3.11,3.81,3.97,6.69,4.28Zm29.99-9.78c-1.19-.2-2.2.43-3.04,1.31-1.21,1.27-2.36,2.6-3.54,3.9-.45.49-.38.91-.09,1.52,1,2.07,3.03,1.99,4.79,2.31,3.27.58,6.94-2.04,7.61-5.24.2-.93-.14-1.6-.86-2.16-1.4-1.09-3-1.58-4.87-1.65Zm-17.84,2.51c-.06-.27-.13-.52-.17-.77-.59-3.53-2.78-6.43-3.92-9.75-.3-.86-1.23-.99-1.97-.83-3.08.66-4.4,4.96-2.27,7.28,2.09,2.28,4.41,4.36,6.16,6.94.21.31.58.87.92.25.54-.98,1.14-1.97,1.27-3.13Zm34.47,4.24c.18-2.69-.09-5.35-.23-8.03-.4-7.34-2.16-14.3-5.57-20.83-1.55-2.96-3.9-5.57-5.85-6.32,1.03,1.44,2.48,2.42,3.35,3.93,3.65,6.33,6.14,12.97,6.06,20.43-.04,3.73.89,7.33,2.24,10.82Zm-54.19-34.22c-.71-.06-.97.3-1.27.55-2.11,1.77-3.49,4.08-4.62,6.54-2.75,6-4.25,12.31-4.35,18.92-.05,3.43,0,6.86,0,10.49,1.38-4.39,1.91-8.66,1.76-13.05-.2-5.71,1.41-11.04,3.65-16.22,1.15-2.66,2.58-5.14,4.85-7.24Zm28.36,37.78c-.07.19-.13.29-.13.38,0,.15,0,.32.06.46,1.37,2.89,3.61,4.86,6.5,6.14.18.08.42.13.6.08,2.47-.73,4.6-1.91,5.48-4.56.11-.32.4-.7.09-1.01-.31-.32-.7-.04-1.01.08-4.12,1.59-7.89.65-11.59-1.57Zm-33.03-12.75c-.23,1.78,1.09,2.74,1.96,3.92.36.48.55.07.79-.22,1.24-1.43,2.75-2.52,4.5-3.22.76-.31.91-.6.27-1.17-1.01-.91-1.72-2.06-2.52-3.14-1.45-1.96-1.49-2.01-3.01,0-.87,1.16-2.27,2.09-1.98,3.82Zm10.83-21.74c-.51-.75-.83-1.72-1.64-2.32-.71-.53-1.43-.13-2,.29-2.47,1.81-3.84,4.39-4.91,7.16-.37.95.54,1.2,1.06,1.64.43.37.76.19,1-.24,1.44-2.55,3.79-4.16,6.03-5.89.2-.15.45-.26.46-.65Zm45.45,39.03c.49-4.75-1.18-8.61-2.22-12.83-1.24,2.02-2.52,3.69-3.25,5.7-.17.47-.48.99.14,1.37,2.18,1.34,3.86,3.17,5.33,5.75Zm-53.9-90.37c.02-.67.15-1.34.51-1.92.69-1.1,1.68-1.12,2.45-.06.22.31.29.92.84.66.54-.26.53-.84.38-1.37-.48-1.71-2.8-2.23-4.18-.94-2.1,1.97-1.53,5.92,1.04,7.19,2.65,1.32,3.59,3.07,3.26,6-.06.56-.48,1.4.4,1.54.76.12.83-.76,1.02-1.33.1-.29.11-.61.13-.92.19-2.92-1.08-5.08-3.75-6.33-1.12-.52-2.19-1.02-2.09-2.53Zm39.22,7.08c-.03.68.04,1.35.29,1.98.21.51.33,1.31,1.02,1.16.78-.17.38-.94.31-1.45-.44-3.28.16-4.7,3.16-6.3,3.09-1.66,2.15-6.21.01-7.43-1.42-.82-3.31-.05-3.54,1.48-.07.44-.19,1.03.34,1.23.54.21.61-.4.84-.71.84-1.11,1.89-1.02,2.53.2.97,1.87.51,3.43-1.45,4.29-2.46,1.08-3.37,3.05-3.51,5.54Zm-39.07,16.28c-.1.8.12,1.38.83,1.55.74.18.77-.43.93-.94.14-.44.41-.83.61-1.24.41-.86.39-1.64-.58-2.09-.64-.3-.98-.52-.32-1.19.76-.77.73-1.59-.2-2.23-.72-.49-.67-1.11-.43-1.78.33-.92.72-1.83,1.05-2.75.14-.4.2-.83-.25-1.1-.31-.18-.59-.06-.85.15-.84.67-2.05,4.68-1.56,5.66.43.85.5,1.46-.19,2.2-.59.64-.43,1.43.27,1.88.82.52,1.3,1.01.69,1.87Zm46.1-7.54c-.23-1.89-.89-3.4-1.73-4.84-.24-.41-.54-.86-1.09-.58-.61.31-.45.85-.21,1.35.33.7.7,1.38.99,2.1.37.93.72,1.85-.45,2.57-.5.31-.6.99-.22,1.38.95.98,1.03,1.68-.33,2.31-.18.08-.31.61-.23.84.34.96.64,1.97,1.21,2.78.46.66,1.27.1,1.26-.41-.04-1.39-.1-2.69,1.25-3.57.1-.07.08-.57-.05-.72-.89-1.06-1.38-2.13-.42-3.2Zm-26.82,41.33c0,.1,0,.21,0,.31-.88,0-1.76-.04-2.64.02-.39.02-1.1-.3-1.08.45.01.54.32,1.12.99,1.23.4.06.84.08,1.24,0,1.74-.33,3.51-.15,5.26-.29,2.33-.19,4.65-.09,6.97.03.9.05,1.48-.49,1.45-1.26-.03-.86-.88-.46-1.36-.46-3.61-.03-7.22-.02-10.82-.02Zm5.48,3.14c-2.12.08-4.24-.04-6.34.3-.29.05-.68-.06-.8.31-.11.34.2.56.41.77.29.29.58.59,1.03.63,3.14.29,6.27.04,9.4-.21.71-.06,1.22-.86,1.19-1.44-.03-.62-.85-.33-1.32-.34-1.19-.05-2.38-.02-3.57-.02Zm-17.76-78.22c-.07-1.75-.32-3.11-1.33-4.2-.27-.29-.61-.67-1.06-.34-.38.28-.19.69,0,.98,1.47,2.29,1.06,4.62.26,7.01-.85,2.54.06,4.68,1.78,6.54.33.35.84.85,1.32.36.43-.44-.12-.84-.39-1.19-1.45-1.9-1.93-3.94-1.14-6.27.34-1.02.42-2.13.56-2.88Zm29.31,9.83c.4-.04.64-.34.9-.58,1.93-1.75,2.52-4.34,1.58-6.79-.81-2.1-1.48-4.21-.25-6.41.22-.4.74-.97.07-1.33-.55-.3-.94.26-1.24.67-.47.64-.69,1.38-.75,2.17-.13,1.62-.02,3.24.64,4.72.96,2.14.41,4.02-.69,5.88-.21.35-.5.67-.67,1.04-.16.35,0,.6.41.63Zm7.45-24.52c0,.49-.16.9-.49,1.27-.29.31-.91.64-.34,1.11.52.43.96-.06,1.31-.44.9-.97,1-2.79.2-4.23-.4-.73-.87-1.42-.78-2.31.07-.68.13-1.45.95-1.6.88-.17.95.58,1.06,1.2.06.32.15.65.56.59.36-.05.49-.36.49-.69,0-.86-.44-1.48-1.14-1.91-.65-.41-1.28-.24-1.87.21-1.3,1-1.65,2.9-.79,4.5.4.73.81,1.45.83,2.31Zm-43.56-2.98c-.01-.68-.05-1.35-.43-1.94-.56-.87-1.4-1.22-2.4-1.08-.89.13-1.29.8-1.43,1.62-.08.45-.14,1.04.47,1.13.59.09.53-.5.6-.89.1-.53.21-1.07.9-1.05.62.02.84.52,1.02,1.02.25.72.2,1.41-.16,2.09-.31.59-.65,1.2-.81,1.84-.32,1.33-.06,2.57,1,3.52.28.25.68.32,1.01.09.34-.24.22-.58-.02-.79-1.36-1.22-.85-2.5-.15-3.78.31-.57.4-1.16.39-1.79Zm26.41,80.51c-.58-1.07-1.5-1.87-2.56-2.53-.35-.22-.71-.51-1.14-.26-1.17.68-2.24,1.48-2.83,2.76-.28.6-.14.98.57.7,1.75-.69,3.49-.77,5.27-.13.35.12.75.12.69-.54Zm-3.11,9.09c.58-1.43,1.04-2.51,1.46-3.6.46-1.19-.3-2.2-1.6-2.16-1.46.04-2.09.97-1.51,2.3.45,1.04.97,2.04,1.65,3.46Zm2.7,11.5c.7.21,1.06-.53,1.05-1.26-.01-.89-.86-.53-1.33-.49-1.49.13-2.98.25-4.48.1-.48-.05-1.3-.47-1.31.42,0,.69.37,1.35,1.4,1.24,1.43-.16,2.88-.39,4.67,0Zm-19.04-51.43c-.61.15-.97.57-1.2,1.12-.42,1.02.57,4.69,1.46,5.37.6.46.97.22,1.1-.44.11-.52-.09-1.02-.26-1.51-.43-1.25-1.22-2.43-.53-3.86.19-.4-.11-.68-.57-.69Zm32.21,1.77c.01-.86-.05-1.47-.53-1.95-.33-.34-.72-.7-1.22-.43-.5.27-.24.73-.08,1.1.29.67.14,1.32-.05,1.97-.24.79-.51,1.58-.73,2.38-.12.43-.05.86.43,1.03.47.17.83-.06,1.01-.48.53-1.24,1.1-2.47,1.16-3.62Zm-30.42,30.43c1.44,2.29,2.58,4.69,5.83,2.99-1.58-1.67-3.31-2.88-5.83-2.99Zm28.68-.68c-2.08.23-3.48,1.13-4.79,2.21-.31.25-.68.61-.56,1.04.17.59.77.35,1.19.42,1.32.2,2.29-.2,2.84-1.52.27-.65.74-1.22,1.31-2.14Zm-21.71,7.6s0-.05,0-.07c-.26,0-.52-.04-.77,0-.5.1-1.37-.34-1.42.4-.07.92.79,1.05,1.56,1,1.12-.08,2.25-.14,3.37-.25.4-.04,1.08.2,1.05-.51-.03-.65-.52-.96-1.2-.88-.86.11-1.73.2-2.59.3Zm13.3,1.01s0,.04,0,.05c1.07-.1,2.15-.19,3.22-.3.39-.04.69-.28.71-.69.02-.53-.44-.49-.78-.5-1.38-.03-2.77,0-4.15-.06-.78-.03-1.06.52-1.1,1.04-.06.79.66.37,1.03.44.34.07.72.02,1.08.02Z"/>
      <path class="cls-1" d="m139.96,229.24c-1.03-.49-2.26.05-3.52.13-2.47.17-4.03-1.52-5.48-3.24-.1-.11-.08-.33-.19-.42-2.34-1.94-4.96-3.42-7.77-4.53-.48-.19-1.11.04-1.43-.61-.19-.39-.16-.71.15-.97.56-.48,1.19-.97,1.95-.69.91.33,1.9.68,2.63,1.29,5.07,4.22,10.98,4.12,16.94,3.14,2.2-.36,4.22-1.68,5.99-3.13.94-.77,2.01-1.25,3.03-1.86.72-.43,1.41-.1,2.05.27.31.18.61.42.45.88-.16.44-.26.99-.86.95-1.57-.1-2.58.93-3.7,1.74-.8.58-1.58,1.14-2.51,1.53-.91.38-1.47,1.12-2.04,1.98-1.26,1.9-2.82,3.6-5.68,3.55Z"/>
      <path class="cls-1" d="m133.07,213.99c1.43.24,2.28,1.22,2.82,2.52.24.59.01,1.13-.43,1.54-.48.45-1.06.41-1.59.13-1.04-.56-1.72-1.51-2.18-2.54-.43-.94.3-1.76,1.38-1.66Z"/>
      <path class="cls-1" d="m140.19,216.65c.12-1.4,1.82-2.98,3.05-2.92.82.04,1.23.47,1.2,1.29-.04,1.13-2.05,3.29-3.01,3.21-.98-.09-1.24-.79-1.25-1.57Z"/>
    </g>
  </g>
</svg>