<?xml version="1.0" encoding="UTF-8"?>
<svg id="Vrstva_1" data-name="Vrstva 1" xmlns="http://www.w3.org/2000/svg" viewBox="0 0 199.6 252.25">
  <defs>
    <style>
      .cls-1 {
        fill: #1e0808;
        stroke-width: 0px;
      }
    </style>
  </defs>
  <path class="cls-1" d="m65.74,117.11c-.39-4.19-.75-7.99-1.09-11.79-.22-2.36-.5-4.72-.61-7.09-.39-8.57-.86-17.13-1.41-25.69-.39-5.95-.72-11.92-.75-17.89-.03-8.84-1.23-17.62-1.15-26.46.05-5.71-.49-11.46.75-17.13.33-1.49.59-3,1.36-4.34.99-1.74,2.68-2.07,4.3-.89,1.51,1.1,2.6,2.55,3.47,4.18,2.65,5.02,4.89,10.21,6.65,15.61,2.65,8.1,5.32,16.19,7.96,24.28.6,1.84,1.13,3.71,1.69,5.57.59-.15.52-.58.51-.9-.12-3.84.11-7.67.41-11.49.76-9.68.31-19.47,2.52-29.03.96-4.18,2.26-8.2,4.81-11.73,2.25-3.12,4.3-3.09,6.68-.13,4.06,5.05,5.34,11.11,6.63,17.19,1.16,5.43,1.36,10.97,1.86,16.47.34,3.81.69,7.63,1.24,11.41.37,2.51-.19,5.11.84,7.68.93-1.96,1.13-4.02,1.69-5.96,3.02-10.4,5.53-20.94,8.89-31.24,1.26-3.87,2.76-7.69,4.97-11.16.39-.61.87-1.18,1.38-1.69,2.13-2.12,4.17-1.74,5.42,1.02.99,2.18,1.59,4.52,1.8,6.87.65,7.03,1.52,14.07,1.09,21.14-.32,5.25-.23,10.48-.24,15.72,0,6.39.43,12.79.21,19.16-.39,11.16.06,22.32-.34,33.46-.12,3.45.07,6.95-.58,10.38-.13.7-.02,1.45-.02,2.45,1.5-1.14,2.29-2.58,3.29-3.79,5.88-7.09,12.31-13.66,18.78-20.2,6.81-6.88,13.29-14.07,19.46-21.53,4.35-5.26,9.14-10.14,14.05-14.88,1.45-1.4,3.27-2.13,5.18-1.41,1.91.72,2.13,2.58,2.17,4.44.18,8.52-3.01,16.02-7.53,22.89-5.64,8.58-10.28,17.69-15.27,26.61-5.53,9.9-10.61,20.02-15.62,30.19-3.5,7.11-6.6,14.39-9.5,21.76-.51,1.29-1.19,2.5-1.58,3.87-.5,1.77-.65,3.39.21,5.08.42.83.52,1.95.14,2.68-1.03,1.97-.83,3.96-.66,6.01.1,1.23-.57,2.24-1.35,3.1-.56.62-1.13,1.35-.98,2.09.67,3.26-.74,6.25-1.02,9.38-.21,2.36-.61,4.7-.65,7.08-.03,1.5-.23,2.92-1.61,3.87-.8.56-.65,1.54-.85,2.34-1.82,7.21-3.8,14.36-7.23,21.02-2.11,4.09-4.69,7.84-7.75,11.26-3.86,4.31-7.68,8.7-12.72,11.71-3.6,2.16-7.65,3.75-11.74,3.56-4.77-.21-9.57-1.53-13.48-4.59-9.31-7.27-17.54-15.5-22.1-26.69-1.99-4.89-4.03-9.79-5.16-14.99-.08-.36-.08-.85-.32-1.03-2.77-2.12-2.27-5.34-2.75-8.19-.47-2.76-.94-5.52-1.64-8.23-.32-1.23-.62-2.47-.34-3.78.21-.99-.3-1.74-.96-2.44-1.4-1.5-2.2-3.18-1.6-5.32.25-.9,0-1.79-.48-2.63-.55-.96-1.02-2.05-.63-3.14,1.17-3.31.11-6.1-1.33-9.12-2.67-5.61-5.29-11.25-8.17-16.76-6.12-11.72-12.75-23.15-19.64-34.44-5.78-9.47-11.57-18.89-17.95-27.99C3.25,77.05.49,70.39.02,63.06c-.02-.36-.04-.74.01-1.1.26-1.61.27-3.39,2.15-4.12,1.86-.71,3.54-.1,4.92,1.1,4.37,3.8,8.67,7.68,12.61,11.92,7.05,7.59,14.2,15.09,21.8,22.14,5.81,5.38,11.76,10.63,17.19,16.4,2.29,2.43,4.5,4.94,7.03,7.71Zm12.46,113.03c3.96,5.02,8.24,9.35,13.06,13.1,7.33,5.71,16.59,6.23,24.35.51,5.43-4,9.71-9.17,13.9-14.76-1.29.01-1.97-.5-1.95-1.6.01-.79.43-1.41,1.21-1.67,1.08-.37,1.39.64,1.94,1.25,1.31-1.75,2.16-3.63,2.96-5.53.28-.67.73-1.19-.46-1.61-1.01-.36-1.08-1.44-.58-2.34.49-.88,1.24-.9,1.99-.28.36.29.67.36.84-.13.74-2.19,1.46-4.39,2.18-6.58-.16-.08-.33-.16-.49-.24-1.39,1.93-2.93,3.8-4.86,5.11-3.35,2.28-4.76,5.51-5.55,9.26-.56,2.67-.91,5.43-2.32,7.85-2.11,3.62-5.08,5.89-9.48,5.64-1.99-.11-3.71-1.77-3.98-3.68-.2-1.4,1.09-3.21,2.71-3.72.84-.27,1.76-.39,2.27.54.44.81.09,1.51-.6,2.08-.39.32-1.1.56-.73,1.26.3.58.96.47,1.49.44,3.15-.2,4.88-2.29,6.08-4.85,1.07-2.29.96-2.34-1.55-2.29-.37,0-.73,0-1.1,0-1.56-.04-2.68-.8-3.29-2.2-.59-1.35-.25-2.65.62-3.78.69-.88,1.59-1.47,2.67-.64,1.07.82.64,1.7-.13,2.48-.5.51-.83.96.1,1.36,1.73.74,4.05-.34,4.49-2.18.44-1.86,1.2-3.58,2.27-5.16.37-.54.75-.97-.06-1.48-1.72-1.08-2.67-2.76-3.64-4.48-1.02-1.82-2.19-3.56-4.17-4.87-.02,2.92-1.19,5.07-3.28,6.66-1.04.79-2.39,1.36-3.4.02-.96-1.27-.33-2.34.85-3.25,1.85-1.42,2.13-3.14.93-5.14-.44-.73-.89-1.53-1.54-2.03-2.46-1.87-3.71-4.64-5.38-7.09-1.5-2.2-2.41-4.71-3.58-7.37-1.26,1.9-1.42,3.91-2.36,5.61-1.99,3.57-3.97,7.09-6.74,10.16-2.22,2.46-2.05,4.82.77,6.55.95.58,1.27,1.65.73,2.75-.54,1.1-1.52,1.11-2.52.81-.95-.28-1.73-.78-2.4-1.58-1.27-1.53-2.03-3.24-2.06-5.46-1.8,1.49-3.07,3.03-3.92,4.86-.86,1.84-1.82,3.6-3.45,4.88-.68.53-.54.93-.09,1.49,1.25,1.54,1.96,3.35,2.54,5.23.42,1.34,2.22,2.38,3.59,2.03,1.03-.26,2.12-.59.66-1.82-.65-.55-.8-1.23-.25-1.94.54-.7,1.25-1,2.08-.56,1.25.65,1.8,1.82,1.99,3.11.18,1.22-.35,2.23-1.39,2.99-1.36.99-2.87.85-4.39.73-.53-.04-1.21-.35-.9.7.78,2.65,3.14,6.01,6.55,6.4.75.09,1.55.18,1.93-.62.39-.83-.57-.92-.93-1.32-.48-.53-1.2-.97-.73-1.85.4-.74,1.1-.97,1.87-.83,1.55.3,2.63,1.22,3.24,2.67.53,1.24-.03,2.37-.74,3.22-1.13,1.37-2.72,2.06-4.56,1.8-5.03-.71-8.02-3.79-9.51-8.46-.72-2.26-1.26-4.58-1.94-6.85-.6-2.02-1.56-4.06-3.19-5.22-2.79-1.99-5.44-4.07-7.7-6.7.71,2.33,1.53,4.58,2.38,6.83.16.43.41.77.95.31.71-.61,1.49-.68,2.02.19.53.87.46,1.78-.41,2.44-.57.43-.79.86-.42,1.54.98,1.79,1.74,3.73,3.21,5.27.59-.69.92-1.65,2.06-1.16.77.33,1.16.96,1.15,1.72-.01,1.05-.81,1.4-1.94,1.46Zm8.47-101.62c.78,0,1.59.31,1.86-.85.8-3.49,1.8-6.92,1.88-10.57.09-4.5.51-8.99.75-13.48.39-7.47,1.21-14.91,1.43-22.39.13-4.38.49-8.75.78-13.12.44-6.67,1.19-13.33,1.32-20,.19-10.16-.21-20.33,1.53-30.4.26-1.51,1.34-2.86,2.57-2.91,1.3-.05,2.56,1.31,2.71,2.94.07.79-.04,1.62.17,2.36,2.56,8.83,2.11,17.95,2.76,26.97.24,3.33.53,6.65.95,9.97.72,5.73,1.36,11.46,1.99,17.2.59,5.32,1.11,10.64,1.69,15.95.89,8.22,1.89,16.42,2.67,24.65.41,4.27,1.47,8.37,2.59,12.48.26.96,1.01.6,1.49.53.88-.12.28-.76.19-1.13-.59-2.36-1.28-4.7-1.85-7.07-2.21-9.25-1.65-18.75-2.55-28.12-.49-5.08-.75-10.19-1.2-15.28-.82-9.26-2.51-18.41-3.33-27.68-.74-8.34-1.29-16.71-2.5-25-.84-5.77-1.84-11.56-4.85-16.73-.32-.55-.46-1.49-1.2-1.45-.71.04-.78.99-1.08,1.56-3.06,5.87-3.88,12.35-4.19,18.74-.43,8.93-1.16,17.85-1.21,26.79-.01,2.14-.23,4.26-.5,6.36-1.05,8.16-1.34,16.37-1.68,24.56-.38,9.31-.55,18.64-.46,27.97.02,2.11-.25,4.25-.61,6.34-.61,3.59-1.39,7.15-2.12,10.83ZM65.93,11.33c-.47.56-.55,1.09-.61,1.61-.76,7.17-.78,14.39-.25,21.54.68,9.05.82,18.12,1.31,27.17.3,5.53.4,11.07.8,16.59.68,9.22.91,18.46,1.73,27.67.53,5.94,1.06,11.87,2.6,17.66.28,1.07.6,2.1,1.37,2.94,1.23,1.33.5,2.44-.48,3.45-.34.35-1.24.28-.93,1.07.36.9,1.18.4,1.76.33.78-.09,1.5-.44,2.07-1.06.41-.45.67-.81.14-1.39-2.2-2.41-2.87-5.46-3.4-8.53-1.11-6.45-1.15-12.93-.78-19.47.51-8.89-.36-17.78-.34-26.68,0-2.24-.28-4.49-.57-6.72-.84-6.63-1.82-13.24-2.41-19.91-.37-4.24-.57-8.49-.9-12.73-.23-2.91-1.1-5.76-.8-8.71.13-1.27.81-2.54,1.93-2.78,1.23-.26,2.5.48,3.08,1.81.27.61.49,1.25.63,1.9.87,4.29,1.33,8.7,2.64,12.84,2.78,8.75,5.99,17.37,9.03,26.04.69,1.98,1.4,3.95,2.1,5.92.31-2.62.34-5.09-.55-7.61-2.66-7.58-5.08-15.24-7.58-22.87-2.43-7.4-4.66-14.87-7.56-22.11-1.1-2.75-2.43-5.41-4.06-8.01Zm48.66,59.94c.77-2.58,1.5-4.97,2.19-7.37,3.52-12.19,8.21-24.09,9.19-36.92.09-1.18.49-2.4,1.01-3.48.68-1.42,2.96-2.09,3.61-1.21.84,1.13,1.3,2.36,1.32,3.83.04,2.63-.59,5.21-.43,7.84.3,4.88-.25,9.74-.4,14.61-.29,9.22-1.99,18.34-1.53,27.64.35,6.99.11,14.03.59,21.01.45,6.49,1.28,12.96.62,19.48-.36,3.56-.64,7.17-2.76,10.28-.97,1.42-.55,2.45,1.13,2.9.71.19,1.47.28,2.62-.09-2.97-.2-3.65-1.25-2.33-3.54,1.2-2.1,1.92-4.29,2.27-6.65,1.24-8.27,1.35-16.61,1.47-24.94.05-3.29,0-6.59.02-9.88.05-9.07.24-18.15.11-27.22-.1-7.26-.41-14.53,0-21.76.41-7.16-.15-14.23-.79-21.32-.14-1.55-.26-3.1-.9-4.63-.89.73-1.13,1.69-1.55,2.56-3.66,7.63-5.39,15.89-7.71,23.95-2.48,8.59-4.64,17.28-7.1,25.88-.84,2.95-1.89,5.8-.66,9.03Zm-55.87,105.72c-.04.36-.05.73-.12,1.09-.18.91.19,1.85.96,1.9.91.07.77-1.05.76-1.68-.06-6.74,1.74-13.11,3.64-19.48,1.49-5.01,3.38-9.83,7.32-13.47,3.49-3.22,7.47-5.49,12.4-3.89,3.22,1.04,6.54,1.95,9.42,3.88.41.27.93.95,1.26,0,.79-2.24,2.35-3.79,4.21-5.13.98-.7.83-1.38-.28-1.87-.89-.39-1.8-.75-2.62-1.26-2.48-1.52-4.85-3.23-7.4-4.62-2.05-1.12-4.26-1.45-6.73-1.24-2.36.2-4.23.86-6.17,2.13-1.11.73-2.05,1.4-3.04,2.35-2.17,2.09-3.85,4.27-4.86,7.11-.27.77-.79,1.56-1.19,2.32-1.17,2.22-2.33,4.4-2.54,6.96-.03.31-.37.64-.64.87-1.22,1.04-1.62,2.36-1.48,3.93.13,1.44-.27,2.71-1.66,3.38-2.2,1.07-1.03,3.77-2.56,5.15-.06.06.11.47.27.64,1.16,1.33.91,2.65.09,4.03-.6,1.02-.74,2.1.05,3.08.92,1.15.97,2.45.91,3.81Zm88.63-13.55c-.08-.68-.47-.87-.85-1.07-.49-.26-.8-.72-.55-1.2.81-1.6-.53-2.21-1.42-2.77-1.35-.86-1.95-1.93-1.85-3.48.09-1.36-.42-2.5-1.37-3.46-1.07-1.07-1.82-2.27-1.57-3.89.09-.61-.12-1.14-.58-1.65-1.93-2.09-3.21-4.61-4.21-7.22-.47-1.22-1.15-1.95-2.15-2.74-2.23-1.76-4.07-3.96-6.89-4.97-.84-.3-1.47-.93-2.48-.61-.5.16-1.12.23-1.62.1-2.82-.79-5.19.29-7.48,1.71-3.15,1.95-5.86,4.56-9.28,6.09-.92.41-1.09,1.04-.26,1.63,1.14.82,2.27,1.64,3.21,2.69.5.56.84.04,1.22-.24,1.33-.99,2.76-1.86,4.42-2.09,5.99-.82,11.51-.61,16.57,3.81,4.51,3.94,7.84,8.42,10.09,13.84,2.54,6.1,4.42,12.37,4.76,19.03.02.4-.14.99.4,1.09.54.1.84-.42,1.06-.86.28-.58.16-1.18.02-1.79-.37-1.54-.3-3.02.69-4.36.29-.38.58-.83.47-1.35-.43-2.12-2.7-4.13-.35-6.24Zm-87.18-44.58c-.41-.7-55.6-55.54-56.18-55.89-.3.65-.2,1.33-.07,1.96,1.3,6.14,3.69,11.84,7.25,17.02,2.21,3.21,4.73,6.23,6.75,9.55,8.3,13.62,17.01,26.99,24.72,40.98,4.59,8.33,8.98,16.75,13.01,25.35.98,2.09.86,2.08,2.68.63.93-.74.92-1.18-.15-1.67-.99-.45-1.58-1.26-2.06-2.22-5.11-10.18-10.17-20.37-16.2-30.06-7.43-11.94-13.95-24.43-21.49-36.31-1.86-2.93-3.76-5.83-5.59-8.78-.58-.94-.75-2.08.21-2.82.89-.69,1.89-.52,2.8.31,2.44,2.2,4.91,4.37,7.24,6.7,3.47,3.48,7.01,6.91,10.65,10.23,7.73,7.06,15.47,14.11,22.82,21.58,1.13,1.15,2.12,2.45,3.62,3.45Zm81.68-1.29c3.21-3.49,6.37-7.02,9.63-10.46,4.93-5.21,9.93-10.36,14.91-15.53,3.79-3.94,7.73-7.74,11.35-11.84,2.23-2.52,4.83-4.63,7.11-7.08.69-.75,1.6-.88,2.48-.29.89.6,1.07,1.43.57,2.39-.56,1.08-1.03,2.22-1.66,3.25-4.31,7.07-8.36,14.3-12.01,21.72-3.09,6.29-6.31,12.51-9.74,18.6-6.68,11.85-11.98,24.36-17.84,36.6-.56,1.16-.25,2.07.71,2.4.9.3.92-.89,1.17-1.47,2.8-6.62,5.54-13.26,8.7-19.72,5.36-10.94,10.84-21.82,16.93-32.38,4.59-7.96,8.58-16.27,13.86-23.83,4.24-6.07,6.97-12.79,7.85-20.2.05-.41.36-.89-.05-1.19-.47-.35-.79.16-1.04.46-2.45,2.96-5.39,5.47-7.91,8.36-5.04,5.77-9.85,11.75-15.02,17.4-5.99,6.55-12.21,12.9-18.44,19.23-4.2,4.26-8.09,8.76-11.58,13.59Zm-15.96,48.5c-.06-.35-.11-.9-.25-1.42-1.01-3.86-4.14-5.86-7.13-7.94-.85-.6-1.05.31-1.17.84-.69,2.82-2.1,5.32-3.52,7.79-.56.97-.6,1.36.47,1.89,2.47,1.22,4.16,3.29,5.74,5.49.45.62.22,1.89,1.13,1.85.82-.03,1.1-1.19,1.67-1.81.2-.22.35-.5.52-.75,1.23-1.74,2.51-3.46,2.54-5.94Zm-54.27,39c-.19,3.83,2.18,6.17,4.83,8.29,1.86,1.49,2.69,1.3,3.8-.83.93-1.78,1.8-3.58,3.12-5.11.66-.77.4-1.28-.47-1.64-1.68-.71-2.88-1.94-3.95-3.39-.91-1.25-1.47-2.64-2.08-4.03-.25-.57-.46-1.46-1.37-.63-2.19,1.99-3.53,4.44-3.89,7.35Zm14.58-11.77c1.61-.18,3.46-.62,5.1-1.57,1.56-.9,1.66-2.48.42-3.71-.95-.95-1.92-1.88-2.82-2.87-2.77-3.02-6.79-3.19-9.92-.48-1.25,1.09-1.47,2.19-.83,3.71,1.46,3.48,4.43,4.44,8.05,4.91Zm34.6-11.54c-1-.2-2.06.6-2.98,1.47-1.58,1.5-2.72,3.42-4.4,4.86-.44.38-.37.87-.09,1.47,1.16,2.55,3.6,2.45,5.75,2.8,3.84.62,7.97-2.28,8.87-6.02.27-1.11-.14-1.88-.95-2.55-1.67-1.4-3.67-1.82-6.2-2.03Zm-31.75-4.88c-.12,1.03.45,1.97,1.2,2.78,2.6,2.8,5.41,5.41,7.58,8.58.24.35.68.8.94.12.57-1.47,1.65-2.69,1.27-4.59-.83-4.13-3.41-7.5-4.67-11.42-.32-.98-1.34-1.06-2.15-.94-1.6.22-4.18,3.61-4.18,5.47Zm38.54-28.52c.46,1.23,1.08,1.64,1.57,2.17.49.54,1.08,1.02,1.45,1.64,4.44,7.47,7.65,15.3,7.57,24.22-.04,4.57.98,9,2.73,13.69,0-3.22-.11-6.01-.32-8.8-.52-6.82-1.41-13.53-4.07-19.91-2-4.79-4.1-9.49-8.91-13.01Zm-62.67,44.11c1.75-5.41,2.28-10.67,2.08-16.06-.22-6.14,1.64-11.88,3.87-17.49,1.39-3.48,3.17-6.75,5.92-9.42-1.57.73-2.68,1.91-3.66,3.25-3.5,4.76-5.26,10.26-6.67,15.88-1.94,7.75-1.46,15.68-1.55,23.85Zm60.44,2.91c-5.31,2.26-10.25,1.62-14.87-1.46-.31.4-.23.78-.08,1.1,1.64,3.29,4.25,5.57,7.57,7.07.25.11.6.09.88.04,3.43-.65,5.69-2.92,6.49-6.75Zm-53.79-16.38c-.32,1.72,1,2.65,1.78,3.84.52.8,1.02.89,1.69.11,1.36-1.6,3.06-2.76,5.01-3.5.96-.36.98-.74.27-1.36-1.06-.93-1.83-2.1-2.65-3.22-1.98-2.73-2.02-2.77-4.05-.08-.95,1.26-2.48,2.3-2.06,4.22Zm12.65-25.71c-.62-.84-.9-2.05-1.9-2.72-.93-.62-1.82-.02-2.51.53-2.69,2.15-4.33,5.05-5.53,8.22-.41,1.08.53,1.34,1.14,1.79.58.43,1.03.19,1.36-.37,1.67-2.88,4.37-4.68,6.9-6.65.23-.18.54-.31.55-.8Zm50.93,30.95c-1.4,2.4-2.88,4.23-3.69,6.48-.33.92-.38,1.46.61,2.07,1.81,1.13,3.35,2.6,4.53,4.42.3.46.51,1.06,1.26,1.36.31-4.97-1.42-9.35-2.71-14.33Zm-42.5-23.75c.93,2.02,1.02,2.13,2.18,2.05,4.84-.34,9.67-.91,14.54-.34.3.03.61,0,.91-.04.88-.14,1.32-.84,1.25-1.55-.07-.73-.9-.42-1.38-.4-2.12.06-4.24.24-6.37.27-3.63.05-7.25.01-11.13.01Zm16.89,3.64c-.71-.41-1.33-.27-1.92-.27-3.57.02-7.14-.03-10.7.36-.57.06-1.52-.3-1.6.37-.09.8.76,1.32,1.53,1.56.45.14.96.05,1.45.09,2.84.18,5.65-.07,8.48-.27,1.45-.1,2.23-.5,2.76-1.84Zm-33.17-56.12c.09-.45.05-.76-.23-.94-.33-.21-.62,0-.76.26-.96,1.84-1.96,3.75-1.31,5.85.32,1.04.41,1.81-.22,2.69-.52.72-.62,1.59.24,2.06,1.03.56,1.49,1.12.84,2.26-.21.37-.11.87.29,1.14.17.11.55.17.66.06.72-.67,1.23-1.5,1.37-2.49.11-.83-.27-1.4-1.13-1.6-.88-.21-.89-.66-.37-1.3.56-.68,1.12-1.5.33-2.26-1.32-1.28-1-2.59-.38-4,.27-.61.49-1.24.68-1.74Zm51.78,3.25c.05-2.17-.76-3.6-1.67-4.98-.17-.25-.39-.55-.73-.34-.31.19-.24.55-.12.83.22.5.52.97.73,1.47.54,1.24,1.14,2.53.25,3.82-.66.97-.66,1.75.17,2.59.45.45.88,1.14-.02,1.45-2.29.77-1.28,2.01-.57,3.24.25.44.37,1.22,1.12.85.62-.3.47-.96.19-1.45-.53-.94-.38-1.58.63-2.05.63-.3,1.04-1.1.62-1.5-1.42-1.36-.84-2.85-.58-3.93Zm-22.34,35.3c-.19-1.69-1.18-2.48-2.2-3.18-.61-.42-1.21-1.28-2.05-.87-1.48.73-2.71,1.82-3.45,3.35-.24.49-.12.96.51.68,2.33-1.04,4.68-.83,7.2.02Zm-3.65,9.74c.73-1.78,1.3-3.18,1.88-4.58.17-.4.37-.88-.04-1.17-1.15-.82-2.37-1.09-3.65-.22-1.12.76-.23,1.51.03,2.19.46,1.18,1.07,2.29,1.79,3.78Zm-10.22-5.22c-1.3-1.84-3.03-2.66-4.82-3.39-.5-.2-1.17-.58-1.52-.14-.52.65.37.98.65,1.45.35.57.71,1.12,1.08,1.67.4.59.88.96,1.67.81.88-.16,1.78-.25,2.94-.4Zm9.55,17.11c-.66,0-1.33-.04-1.99.01-.47.03-1.28-.3-1.19.6.06.63.37,1.25,1.31,1.16,1.91-.19,3.81-.54,5.75-.1,1,.23,1.18-.81,1.18-1.45,0-.83-.84-.57-1.28-.47-1.26.28-2.52.27-3.78.25Zm17.27-21.72c-2.53.6-4.44,1.46-5.91,3.18-.28.33-.54.69.02,1.04.76.49,3.17.13,3.69-.64.7-1.03,1.31-2.13,2.2-3.58Zm-25.72,10.58c1.05-.1,2.32-.2,3.59-.33.42-.05,1.14.21,1.02-.61-.08-.55-.46-1.08-1.14-.92-1.57.38-3.16.18-4.73.26-.47.02-1.09-.03-1.04.69.04.52.41.88.98.91.36.02.73,0,1.32,0Z"/>
  <path class="cls-1" d="m105.74,228.45c-1.26-.75-2.77.03-4.3.09-2.9.13-4.75-1.82-6.33-3.96-.47-.64-.8-1.42-1.58-1.7-2.33-.83-4.21-2.42-6.32-3.61-.43-.24-.83-.58-1.35-.46-.78.18-1.44.22-1.79-.7-.18-.46-.18-.84.18-1.16.65-.59,1.43-1.18,2.29-.77,1.31.63,2.73,1.04,3.9,1.97.76.6,1.6,1.08,2.43,1.58,5.2,3.11,10.83,2.44,16.35,1.67,2.88-.4,5.44-2.08,7.7-3.96,1.01-.84,2.17-1.34,3.29-1.94.89-.48,1.78-.13,2.55.46.37.28.46.61.32,1.11-.18.64-.51.97-1.15.93-1.41-.08-2.4.74-3.44,1.49-1.23.89-2.38,1.87-3.83,2.44-1.03.4-1.62,1.28-2.23,2.25-1.46,2.31-3.42,4.11-6.68,4.26Z"/>
  <path class="cls-1" d="m97.56,210.33c1.77.36,2.83,1.53,3.47,3.12.27.68-.04,1.32-.56,1.8-.55.51-1.18.56-1.84.21-1.34-.72-2.19-1.92-2.71-3.26-.45-1.15.42-2.02,1.64-1.87Z"/>
  <path class="cls-1" d="m109.86,210.07c.56.02,1.17.45,1.14,1.53-.04,1.39-2.2,3.81-3.43,3.82-1.16,0-1.63-.74-1.68-1.74-.07-1.54,1.99-3.58,3.97-3.61Z"/>
</svg>